<svg version="1.1" id="Layer_1" xmlns="http://www.w3.org/2000/svg" xmlns:xlink="http://www.w3.org/1999/xlink" x="0px" y="0px"
	 width="150px" height="150px" viewBox="140 230 860 570" enable-background="new 0 0 1024 1024" xml:space="preserve">
<path fill="#000000" opacity="0.000000" stroke="none" 
	d="
M705.000000,1025.000000 
	C470.000000,1025.000000 235.500000,1025.000000 1.000000,1025.000000 
	C1.000000,683.666687 1.000000,342.333344 1.000000,1.000000 
	C342.333344,1.000000 683.666687,1.000000 1025.000000,1.000000 
	C1025.000000,342.333344 1025.000000,683.666687 1025.000000,1025.000000 
	C918.500000,1025.000000 812.000000,1025.000000 705.000000,1025.000000 
M327.778259,312.830597 
	C327.778259,312.830597 327.870575,312.804565 327.233093,312.849274 
	C326.498993,313.274689 325.764862,313.700073 324.391968,314.102783 
	C323.548431,314.707977 322.704895,315.313171 321.253265,316.053955 
	C320.547211,316.487732 319.841187,316.921509 318.427002,317.404358 
	C315.263153,319.257202 312.099304,321.110046 308.287964,323.154968 
	C306.542816,324.176300 304.797668,325.197632 302.385406,326.212585 
	C301.118988,327.060883 299.852570,327.909149 298.206543,328.823792 
	C298.206543,328.823792 298.002350,329.150604 297.305328,329.192841 
	C293.710999,331.291077 290.116669,333.389343 286.554047,335.917908 
	C286.554047,335.917908 286.494415,335.489410 285.813446,335.654846 
	C274.029510,342.145599 262.208252,348.569824 250.473557,355.148376 
	C241.242950,360.323059 232.119141,365.688263 222.997238,370.999939 
	C222.997238,370.999939 222.970901,370.947998 222.273987,371.112549 
	C216.475372,374.393372 210.676743,377.674164 204.261841,381.031494 
	C203.508240,381.371857 202.754639,381.712250 201.084213,381.852264 
	C195.711838,381.845276 190.339478,381.838287 184.539536,381.422485 
	C183.894897,382.256134 183.250259,383.089783 182.738724,384.861267 
	C182.704803,438.758301 182.668274,492.655334 182.650696,546.552368 
	C182.650208,548.034973 182.853699,549.517639 182.704834,551.650757 
	C182.791901,552.100464 182.878967,552.550110 182.691483,553.865906 
	C182.804672,556.573914 182.917847,559.281921 182.411880,562.388794 
	C182.341690,565.036804 182.271500,567.684875 182.309357,571.101379 
	C182.249023,572.389893 182.188690,573.678467 181.656509,575.489502 
	C181.821564,577.004089 181.986618,578.518677 182.327393,580.951172 
	C182.488281,586.613098 182.649155,592.274963 182.466309,598.824463 
	C182.442215,645.929688 182.415527,693.034973 182.411896,740.140198 
	C182.411819,741.116211 182.678757,742.092224 182.530212,743.897278 
	C182.426804,746.243835 182.323395,748.590454 181.723007,751.396851 
	C181.869965,752.614990 182.016937,753.833191 182.319077,755.851135 
	C181.829971,760.213074 183.293762,762.391357 188.923447,761.140259 
	C203.945984,761.059509 218.968536,760.978821 234.650452,761.130554 
	C235.103149,761.052612 235.555832,760.974670 236.864761,761.093506 
	C238.906845,761.028076 240.948914,760.962708 243.902496,761.137817 
	C259.603333,761.076294 275.304199,761.014771 291.880707,761.183105 
	C294.586426,761.118591 297.292114,761.054077 300.721741,761.277161 
	C301.481720,761.183289 302.241699,761.089478 303.896515,761.234924 
	C307.597198,761.156372 311.297882,761.077820 315.869171,761.289429 
	C318.913605,761.192932 321.958008,761.096375 325.731812,761.243896 
	C326.487213,761.164001 327.242584,761.084045 328.645874,761.290283 
	C329.097931,761.194946 329.549988,761.099609 330.731384,761.249390 
	C331.486938,761.167969 332.242523,761.086487 333.720734,761.300659 
	C334.481140,761.201660 335.241547,761.102661 336.910736,761.251282 
	C375.988678,761.223022 415.066650,761.218079 454.144531,761.156555 
	C473.427094,761.126221 492.709534,760.991638 512.651367,761.135254 
	C513.103638,761.056519 513.555847,760.977783 514.926636,761.093933 
	C522.614624,761.028625 530.302551,760.963318 538.773010,761.138184 
	C539.851624,761.057434 540.930176,760.976685 542.790588,761.094421 
	C543.857422,761.028442 544.924316,760.962463 546.881836,761.139587 
	C550.257629,761.055664 553.633484,760.971680 557.847290,761.085693 
	C559.561646,761.018372 561.276001,760.951050 563.867065,761.121399 
	C566.581421,761.040039 569.295715,760.958679 572.742310,761.072998 
	C573.491638,761.010315 574.241028,760.947632 575.866577,761.125366 
	C578.580872,761.044434 581.295166,760.963501 584.660339,761.075378 
	C585.103760,761.011780 585.547119,760.948242 586.725891,761.126892 
	C587.486938,761.047913 588.247925,760.968872 589.926331,761.090515 
	C605.614685,761.026550 621.303101,760.962585 637.804504,761.141296 
	C639.205933,761.059143 640.607300,760.976990 642.923950,761.095398 
	C648.279785,761.029114 653.635559,760.962769 659.649963,761.132141 
	C660.102783,761.054260 660.555542,760.976379 661.924011,761.100891 
	C667.613525,761.037415 673.303040,760.973938 679.772949,761.157410 
	C680.850952,761.076477 681.929016,760.995544 683.923889,761.119202 
	C710.475708,761.141541 737.027588,761.163879 763.579407,761.186157 
	C768.699036,761.190491 773.818665,761.194946 779.684692,761.551697 
	C782.184326,761.560608 784.683960,761.569519 787.635864,761.887939 
	C788.213440,761.543762 788.791016,761.199524 789.368591,760.855408 
	C788.691650,760.526245 788.014709,760.197021 786.773682,759.488647 
	C784.182068,757.659973 781.590454,755.831238 779.000000,754.000000 
	C779.000000,754.000000 778.996887,754.001465 778.700745,753.452332 
	C777.797241,753.004700 776.893677,752.557068 775.542725,751.643127 
	C774.110413,750.727112 772.678162,749.811157 771.013428,748.269043 
	C769.329590,746.881958 767.645691,745.494873 765.686768,743.568726 
	C765.070557,743.064575 764.454285,742.560425 763.625122,741.463135 
	C762.413635,740.674561 761.202087,739.886047 759.792847,738.810181 
	C759.792847,738.810181 759.444153,738.820435 759.132202,738.251160 
	C758.072937,737.544739 757.013611,736.838318 755.731018,735.641418 
	C755.280457,735.375427 754.829895,735.109436 754.071716,734.268921 
	C753.056580,733.491028 752.041382,732.713135 750.952942,731.221619 
	C752.582153,729.675293 754.138672,728.042725 755.853333,726.597900 
	C763.053406,720.530701 770.300598,714.519592 778.791016,707.436523 
	C765.073792,707.436523 752.837585,707.436523 739.743347,707.436523 
	C739.743347,695.209290 739.680176,683.749390 739.883179,672.294128 
	C739.896973,671.515747 741.911621,670.772888 743.716797,670.295288 
	C759.478088,672.396851 775.270874,674.481445 791.190002,672.614624 
	C801.821838,671.367737 812.381836,669.508545 823.668152,667.923035 
	C824.098694,667.759583 824.529175,667.596069 825.723022,667.605591 
	C835.350586,664.477234 844.978088,661.348877 855.112793,658.287842 
	C855.403076,658.123779 855.693420,657.959717 856.677124,657.767822 
	C858.324890,656.921448 859.972595,656.075012 862.128174,655.283813 
	C862.412659,655.112000 862.697083,654.940125 863.651428,654.718323 
	C865.190125,653.850098 866.728882,652.981873 868.699829,652.103821 
	C868.699829,652.103821 868.981995,651.776123 869.602112,651.708008 
	C870.236206,651.203247 870.870239,650.698425 872.068298,650.091675 
	C872.695984,649.675964 873.323669,649.260254 874.614685,648.754028 
	C875.885498,647.892822 877.156372,647.031616 879.023621,646.164490 
	C879.679504,645.740601 880.335327,645.316711 881.631226,644.858276 
	C882.505676,644.275208 883.380188,643.692139 884.692749,643.097229 
	C884.692749,643.097229 884.981567,642.767761 885.590088,642.698242 
	C886.206909,642.189697 886.823792,641.681152 887.791260,641.204468 
	C887.791260,641.204468 887.992920,640.915894 888.620117,640.878540 
	C889.217590,640.307373 889.815002,639.736145 890.786987,639.136841 
	C890.786987,639.136841 890.984436,638.817322 891.612122,638.714905 
	C892.548035,637.865845 893.484009,637.016846 894.939636,636.072815 
	C895.285522,635.693970 895.631470,635.315186 896.584412,634.828552 
	C897.154846,634.260681 897.725281,633.692810 898.858276,633.118164 
	C899.247803,632.767456 899.637268,632.416748 900.642761,631.889526 
	C901.733826,630.916443 902.824829,629.943359 904.539185,628.741821 
	C906.358337,627.158081 908.177490,625.574341 910.646362,623.880188 
	C911.888916,622.637634 913.131409,621.395142 914.954041,619.885620 
	C916.660339,617.981445 918.366638,616.077271 920.708069,613.946045 
	C922.808228,611.631897 924.908447,609.317810 927.548218,606.725952 
	C928.424438,605.629333 929.300659,604.532654 930.787415,603.196167 
	C931.495178,602.120239 932.202942,601.044250 933.392212,599.739685 
	C933.648682,599.290588 933.905212,598.841492 934.728333,598.078430 
	C935.462769,597.044250 936.197144,596.010010 937.414795,594.747498 
	C937.661926,594.291870 937.909058,593.836304 938.746338,593.034180 
	C942.476746,587.015320 946.207153,580.996460 950.424133,574.630188 
	C950.589905,574.079041 950.755737,573.527893 951.392151,572.497131 
	C966.911926,545.975098 974.556580,517.085266 975.937195,486.635803 
	C977.652527,448.802734 970.108276,412.870728 950.881836,379.899017 
	C942.602783,365.701050 933.388245,352.095886 921.000000,341.000000 
	C921.000000,341.000000 921.012878,340.992554 920.830139,340.351288 
	C901.987488,321.006592 879.500488,307.100372 854.392883,295.829376 
	C852.673279,295.180206 850.953674,294.531036 848.874512,293.281860 
	C846.272705,292.102692 843.670959,290.923523 841.031067,289.414124 
	C840.917175,289.196014 840.737305,289.082184 840.530151,288.284180 
	C845.209167,287.039276 849.888123,285.794373 854.045654,284.688232 
	C854.045654,273.199646 854.045654,262.156921 854.045654,249.777603 
	C847.691101,254.334579 842.345886,258.167694 836.320312,262.199036 
	C827.953186,267.506012 819.585999,272.812988 811.112671,278.097290 
	C811.112671,278.097290 811.102234,278.205322 810.433167,278.258087 
	C809.152710,279.093506 807.872253,279.928955 806.005981,280.927795 
	C804.975769,281.550079 803.945618,282.172363 802.260864,282.676056 
	C801.839050,282.804260 801.417236,282.932465 800.476990,282.793701 
	C799.957275,282.531769 799.437561,282.269836 798.879944,281.331818 
	C798.730591,280.907959 798.581177,280.484070 798.683228,279.232147 
	C798.662842,271.597046 798.662903,271.501495 790.940063,271.494568 
	C779.619507,271.484406 768.298767,271.701385 756.978210,271.693329 
	C640.602722,271.610474 524.227234,271.484589 407.851776,271.491241 
	C404.692047,271.491425 401.532379,272.843903 397.723633,273.732635 
	C395.155426,275.178955 392.587219,276.625275 389.368073,278.058777 
	C388.137848,278.894775 386.907593,279.730743 385.661102,280.653503 
	C385.661102,280.653503 385.745117,280.680573 385.114990,280.704376 
	C384.414734,281.155396 383.714478,281.606445 382.320435,282.088593 
	C380.816254,283.022949 379.312073,283.957306 377.377808,285.000732 
	C377.377808,285.000732 377.066406,285.316772 376.446686,285.327362 
	C375.794769,285.784393 375.142853,286.241394 373.942169,286.860016 
	C373.300568,287.261719 372.658997,287.663391 371.343323,288.121094 
	C369.869263,289.066040 368.395203,290.011017 366.449799,291.045929 
	C366.449799,291.045929 366.070953,291.340393 365.467621,291.336182 
	C364.859070,291.822968 364.250549,292.309723 363.004242,292.942963 
	C361.683624,293.691833 360.363007,294.440704 358.418640,295.200989 
	C357.719696,295.630646 357.020782,296.060303 355.841095,296.594818 
	C355.523010,296.704987 355.253784,296.887299 354.411865,297.153534 
	C353.615356,297.795502 352.818848,298.437469 351.376770,299.180939 
	C350.267792,299.856598 349.158813,300.532288 347.389343,301.245117 
	C346.127991,302.082825 344.866608,302.920532 343.253418,303.792450 
	C343.253418,303.792450 343.012054,304.050690 342.373230,304.041687 
	C341.687469,304.526611 341.001709,305.011536 339.696442,305.629517 
	C338.477386,306.451691 337.258331,307.273895 335.402100,308.112274 
	C334.743256,308.614227 334.084381,309.116180 332.921844,309.700684 
	C332.631348,309.871216 332.340851,310.041748 331.400208,310.243225 
	C330.185303,311.074615 328.970398,311.906006 327.778259,312.830597 
z"/>
<path fill="#AAAFFC" opacity="1.000000" stroke="none" 
	d="
M759.444153,738.820435 
	C759.444153,738.820435 759.792847,738.810181 759.947632,739.287720 
	C761.347656,740.528931 762.592834,741.292603 763.838013,742.056274 
	C764.454285,742.560425 765.070557,743.064575 765.881958,744.176880 
	C767.800049,746.155029 769.522949,747.525085 771.245850,748.895142 
	C772.678162,749.811157 774.110413,750.727112 775.850525,752.196411 
	C777.104492,753.166992 778.050720,753.584229 778.996887,754.001465 
	C778.996887,754.001465 779.000000,754.000000 778.993530,754.409241 
	C778.970764,756.945435 778.954529,759.072327 778.938354,761.199280 
	C773.818665,761.194946 768.699036,761.190491 763.579407,761.186157 
	C737.027588,761.163879 710.475708,761.141541 683.372437,760.702637 
	C681.544800,760.494263 680.268677,760.702393 678.992554,760.910522 
	C673.303040,760.973938 667.613525,761.037415 661.411011,760.740234 
	C660.262512,760.551880 659.626953,760.724182 658.991394,760.896484 
	C653.635559,760.962769 648.279785,761.029114 642.360474,760.668579 
	C639.914734,758.409241 638.267334,758.294861 636.991455,760.898621 
	C621.303101,760.962585 605.614685,761.026550 589.391113,760.693115 
	C587.900757,760.492004 586.945679,760.688293 585.990540,760.884644 
	C585.547119,760.948242 585.103760,761.011780 584.200317,760.627930 
	C580.685547,758.699768 577.668457,757.687500 574.990356,760.884949 
	C574.241028,760.947632 573.491638,761.010315 572.240967,760.624512 
	C568.684753,758.700134 565.667542,757.690247 562.990356,760.883728 
	C561.276001,760.951050 559.561646,761.018372 557.288330,760.629639 
	C553.034973,758.706909 549.361450,757.549683 545.991150,760.896545 
	C544.924316,760.962463 543.857422,761.028442 542.305542,760.682495 
	C540.543823,760.479736 539.267151,760.688843 537.990540,760.898010 
	C530.302551,760.963318 522.614624,761.028625 514.411621,760.737122 
	C513.261719,760.554993 512.626831,760.729614 511.992004,760.904175 
	C492.709534,760.991638 473.427094,761.126221 454.144531,761.156555 
	C415.066650,761.218079 375.988678,761.223022 336.387177,760.818115 
	C334.908447,760.591675 333.953278,760.798340 332.998077,761.005005 
	C332.242523,761.086487 331.486938,761.167969 330.317688,760.856812 
	C329.268646,760.644165 328.633301,760.824097 327.997986,761.004089 
	C327.242584,761.084045 326.487213,761.164001 325.269104,760.782715 
	C321.414062,758.766296 318.071808,757.936401 314.998566,760.999268 
	C311.297882,761.077820 307.597198,761.156372 303.379150,760.807312 
	C301.907135,760.583008 300.952484,760.786316 299.997833,760.989624 
	C297.292114,761.054077 294.586426,761.118591 291.306213,760.699646 
	C289.713074,759.818054 288.696411,759.079163 287.675537,759.073364 
	C273.974060,758.995422 260.271576,758.973022 246.570847,759.100281 
	C245.372101,759.111328 244.184036,760.271118 242.990997,760.897278 
	C240.948914,760.962708 238.906845,761.028076 236.381058,760.735962 
	C235.261932,760.551575 234.626511,760.724854 233.991089,760.898071 
	C218.968536,760.978821 203.945984,761.059509 188.407471,760.701172 
	C186.242828,758.502991 184.594147,756.744019 182.832352,754.653809 
	C182.552826,753.194031 182.386414,752.065552 182.219986,750.937012 
	C182.323395,748.590454 182.426804,746.243835 183.022888,743.400635 
	C184.006317,741.446289 184.923538,739.989319 184.925949,738.530823 
	C185.000793,693.102661 185.006317,647.674316 184.894226,602.246338 
	C184.890671,600.808167 183.535263,599.373291 182.810059,597.936890 
	C182.649155,592.274963 182.488281,586.613098 182.378464,580.198853 
	C182.329147,577.953369 182.228745,576.460205 182.128357,574.966980 
	C182.188690,573.678467 182.249023,572.389893 182.461945,570.710144 
	C182.614548,570.318909 183.024536,570.265564 183.167236,570.347534 
	C183.681076,570.424377 183.909851,570.234863 184.396545,569.707397 
	C227.133575,565.520325 269.574524,566.846130 312.126221,567.429810 
	C313.110962,568.182434 313.946686,568.889526 314.819458,568.938660 
	C319.892914,569.224487 325.001068,569.094116 330.048767,569.595093 
	C339.699005,570.552917 349.300171,572.635742 358.950836,572.833740 
	C382.548340,573.317749 406.162537,573.015259 429.769775,572.951172 
	C431.514923,572.946411 433.258362,572.317383 435.471008,571.978271 
	C448.897095,571.979309 461.857208,572.113770 474.810577,571.877197 
	C477.644409,571.825439 480.454041,570.450562 483.724304,569.637817 
	C497.648712,569.676880 511.123505,569.791504 524.598511,569.841614 
	C537.907593,569.891113 551.217102,569.920349 564.526123,569.875305 
	C577.719849,569.830627 590.934937,570.208313 604.085022,569.057251 
	C598.669067,563.395569 563.322083,561.449402 532.516418,564.283081 
	C531.085815,564.151550 530.044556,564.071106 528.987000,563.628601 
	C528.661804,560.363159 528.353027,557.459717 528.499023,554.457275 
	C532.936340,554.357788 536.919128,554.379822 540.901428,554.349060 
	C543.576111,554.328430 546.114502,553.971985 545.713867,550.339294 
	C545.371704,547.236755 546.318542,543.163879 541.024048,543.317810 
	C535.943115,543.465637 530.850220,543.433472 525.783936,543.786865 
	C520.740051,544.138855 515.142029,546.536560 510.835022,545.033691 
	C504.917572,542.968994 499.651581,544.342224 494.090088,544.550659 
	C491.634399,544.642700 488.606262,545.695496 486.837982,544.638794 
	C482.690918,542.160522 482.766144,544.533630 482.688385,547.349792 
	C482.634369,549.306519 482.677948,551.265991 482.677948,553.308899 
	C484.421326,553.609924 485.704987,553.831543 486.988770,554.452759 
	C487.313019,558.197693 486.026794,560.322021 482.657501,561.353699 
	C481.297119,561.770325 480.207153,563.070129 478.591370,564.048340 
	C477.105133,564.238525 476.021729,564.348267 474.519897,564.376831 
	C472.401184,564.206116 470.700867,564.116577 468.877441,563.670532 
	C465.987061,561.480286 463.312500,560.696594 460.538086,564.092407 
	C449.386353,564.137146 438.695221,564.088379 427.544800,563.937988 
	C362.022644,563.259827 296.959930,562.674133 231.896942,562.113281 
	C216.599243,561.981384 201.300812,561.933289 185.997742,561.449585 
	C184.983856,558.368286 183.974930,555.684021 182.966019,552.999817 
	C182.878967,552.550110 182.791901,552.100464 183.208435,551.193481 
	C184.141373,548.728699 184.942673,546.721741 184.945618,544.713623 
	C185.016373,496.319916 184.948364,447.925934 185.088120,399.532532 
	C185.101593,394.863525 183.110779,388.511871 192.260483,388.194275 
	C189.737915,386.856232 188.211777,386.046753 186.685623,385.237244 
	C186.726929,384.824677 186.768234,384.412140 186.809540,383.999573 
	C190.352112,383.999573 193.910172,384.192932 197.430191,383.911133 
	C198.993378,383.786011 200.479782,382.701599 202.001053,382.052643 
	C202.754639,381.712250 203.508240,381.371857 204.979706,381.006500 
	C209.518951,379.427368 213.497971,378.164490 217.103973,376.212494 
	C219.351105,374.996094 221.034531,372.738403 222.970917,370.947998 
	C222.970901,370.947998 222.997238,370.999939 223.376495,370.994690 
	C229.116653,368.760803 234.722855,366.980530 239.787201,364.209869 
	C250.221375,358.501404 260.301575,352.149780 270.657166,346.292236 
	C275.863220,343.347534 281.353455,340.905212 287.601807,337.794220 
	C287.330750,338.923676 287.532532,338.577301 287.456787,338.309387 
	C287.187012,337.354980 286.822845,336.427246 286.494415,335.489410 
	C286.494415,335.489410 286.554047,335.917908 286.973083,335.828003 
	C292.926910,336.760468 295.464172,332.954803 298.002350,329.150604 
	C298.002350,329.150604 298.206543,328.823792 298.763245,328.857635 
	C300.564148,328.000641 301.808350,327.109802 303.052551,326.218964 
	C304.797668,325.197632 306.542816,324.176300 308.985229,323.082397 
	C312.764221,321.634033 315.845917,320.258270 319.085327,319.064087 
	C319.628571,319.253265 320.014069,319.260864 320.399567,319.268463 
	C320.109314,318.857391 319.819031,318.446289 319.460022,317.848083 
	C319.391266,317.660919 319.135162,317.355286 319.135162,317.355286 
	C319.841187,316.921509 320.547211,316.487732 321.941925,316.037903 
	C323.403717,315.971924 324.176849,315.921967 325.151672,316.122467 
	C326.284912,316.770874 327.216461,317.168823 328.614288,317.765900 
	C328.299622,315.666718 328.085083,314.235657 327.870575,312.804565 
	C327.870575,312.804565 327.778259,312.830597 328.111389,312.834167 
	C329.646484,311.962616 330.848450,311.087463 332.050385,310.212280 
	C332.340851,310.041748 332.631348,309.871216 333.570984,309.744507 
	C334.758270,309.828339 335.296448,309.868347 336.166779,310.060791 
	C339.089172,311.469299 341.679413,312.725403 344.305878,313.999084 
	C345.441406,312.313751 346.678833,310.477142 347.838898,308.755371 
	C346.805786,307.036835 345.904724,305.537994 345.281128,303.879608 
	C346.358948,303.442932 347.159271,303.165741 348.026428,303.247192 
	C349.862427,304.607849 351.529266,305.982513 353.430267,306.504486 
	C355.243835,307.002441 357.301422,306.611816 360.160156,306.611816 
	C363.217865,303.219666 367.087830,298.926422 371.308716,294.243896 
	C371.158722,293.868256 370.555756,292.358429 370.164703,290.663086 
	C370.904083,290.281647 371.431519,290.085785 372.031281,290.247314 
	C373.488373,291.190491 375.110901,292.534088 376.204407,292.191132 
	C378.017212,291.622559 379.489685,289.968842 381.736084,288.305328 
	C381.329407,287.565582 380.613007,286.262482 380.149536,284.743835 
	C381.242584,284.290375 382.082672,284.052460 383.090637,284.125488 
	C384.499908,285.264954 385.741302,286.093445 386.982666,286.921936 
	C387.216461,286.619324 387.450256,286.316681 387.684052,286.014069 
	C387.037750,284.236237 386.391418,282.458405 385.745117,280.680573 
	C385.745117,280.680573 385.661102,280.653503 386.035126,280.729462 
	C386.921112,280.834717 387.433075,280.864044 388.163391,281.151794 
	C389.567413,281.937408 390.753021,282.464600 391.938660,282.991760 
	C392.143250,282.629242 392.347870,282.266754 392.552460,281.904236 
	C391.640900,281.232483 390.729340,280.560730 389.861816,279.586853 
	C389.943573,278.880371 389.981293,278.475983 390.019012,278.071594 
	C392.587219,276.625275 395.155426,275.178955 398.508362,273.777985 
	C425.862396,273.564056 452.431732,273.304779 479.080139,273.346313 
	C480.105774,273.448212 481.052368,273.249298 482.467316,273.030640 
	C490.624329,273.032349 498.313019,273.053833 506.082153,273.372070 
	C507.107788,273.474457 508.052979,273.280151 509.464630,273.062225 
	C514.956970,273.068146 519.982849,273.097656 525.154419,273.481384 
	C530.219055,273.856110 535.137939,273.876617 540.521851,273.895447 
	C616.990417,273.925629 692.994019,273.957520 769.326782,274.242188 
	C778.441833,274.659210 787.227539,274.823425 796.166443,275.321655 
	C796.559509,277.098572 796.799438,278.541504 796.853760,280.193115 
	C797.418091,280.937195 798.167969,281.472534 798.917847,282.007904 
	C799.437561,282.269836 799.957275,282.531769 800.799194,283.195740 
	C801.462036,283.839142 801.802612,284.080536 802.143188,284.321930 
	C802.400635,283.812836 802.658020,283.303772 802.915466,282.794678 
	C803.945618,282.172363 804.975769,281.550079 806.659790,280.902710 
	C808.576538,279.986877 809.839355,279.096100 811.102234,278.205322 
	C811.102234,278.205322 811.112671,278.097290 811.538574,278.123291 
	C814.925842,277.051361 817.887207,275.953400 821.170959,274.834442 
	C821.990601,274.201874 822.487854,273.590302 823.154785,272.715515 
	C824.219971,271.984558 825.115540,271.516815 826.280090,271.268280 
	C830.077454,270.756561 833.608459,270.029724 834.906738,265.924225 
	C834.924133,265.920898 834.932617,265.886566 835.299927,265.939514 
	C836.355042,266.373138 837.431641,266.590790 837.670227,267.159851 
	C839.901367,272.480713 842.736267,276.280121 850.003845,271.292328 
	C850.003845,276.359436 850.003845,280.182251 849.677734,284.224792 
	C846.905823,284.650452 844.460022,284.856384 841.808716,284.858215 
	C840.715881,285.390900 839.828674,286.127625 838.757568,287.063538 
	C838.687195,287.907928 838.800659,288.553192 838.958984,289.520142 
	C839.682373,290.552338 840.361023,291.262817 841.370239,292.144653 
	C844.211914,292.837982 846.723022,293.359924 849.234070,293.881866 
	C850.953674,294.531036 852.673279,295.180206 854.779297,296.346802 
	C856.782288,297.966400 858.313843,299.228821 860.031555,300.140656 
	C865.124329,302.843964 870.531982,305.027679 875.382629,308.099640 
	C889.940735,317.319397 904.695984,326.316925 916.672180,339.028320 
	C917.679382,340.097321 919.545715,340.356934 921.012878,340.992554 
	C921.012878,340.992554 921.000000,341.000000 921.036865,341.346283 
	C921.887024,343.121552 922.546997,344.668182 923.538452,345.960510 
	C930.086304,354.495575 936.938477,362.806885 943.251892,371.509979 
	C955.659912,388.614349 963.571899,407.905853 968.423096,428.284454 
	C973.234009,448.493988 974.649597,469.074097 973.193176,489.939697 
	C972.081421,505.867981 970.455994,521.594727 965.210815,536.726562 
	C962.735901,543.866455 959.649170,550.793884 956.861633,557.826294 
	C954.862793,562.869019 952.900269,567.926086 950.921509,572.976807 
	C950.755737,573.527893 950.589905,574.079041 949.840637,574.863342 
	C945.556824,581.191223 941.856506,587.285950 938.156250,593.380737 
	C937.909058,593.836304 937.661926,594.291870 936.825317,594.926514 
	C935.544434,596.201111 934.853027,597.296692 934.161682,598.392334 
	C933.905212,598.841492 933.648682,599.290588 932.802734,599.921509 
	C931.534485,601.214233 930.855713,602.325134 930.176880,603.436035 
	C929.300659,604.532654 928.424438,605.629333 926.935913,606.910645 
	C924.240112,609.454590 922.156494,611.813782 920.072937,614.173035 
	C918.366638,616.077271 916.660339,617.981445 914.301636,620.011963 
	C912.431702,621.422363 911.214172,622.706482 909.996643,623.990601 
	C908.177490,625.574341 906.358337,627.158081 903.871582,628.864380 
	C902.144897,630.013367 901.085815,631.039673 900.026733,632.065979 
	C899.637268,632.416748 899.247803,632.767456 898.246338,633.132568 
	C897.082031,633.743347 896.529663,634.339844 895.977356,634.936340 
	C895.631470,635.315186 895.285522,635.693970 894.327576,636.104675 
	C892.805176,637.030151 891.894836,637.923767 890.984497,638.817383 
	C890.984436,638.817322 890.786987,639.136841 890.261841,639.146790 
	C889.155396,639.743103 888.574158,640.329468 887.992920,640.915894 
	C887.992920,640.915894 887.791260,641.204468 887.286011,641.174438 
	C886.181091,641.685547 885.581360,642.226685 884.981567,642.767822 
	C884.981567,642.767761 884.692749,643.097229 884.119080,643.069519 
	C882.694031,643.658813 881.842651,644.275879 880.991211,644.892822 
	C880.335327,645.316711 879.679504,645.740601 878.347778,646.125732 
	C876.431763,647.006165 875.191589,647.925415 873.951355,648.844604 
	C873.323669,649.260254 872.695984,649.675964 871.450195,650.124756 
	C870.215393,650.697266 869.598694,651.236694 868.981995,651.776123 
	C868.981995,651.776123 868.699829,652.103821 868.113647,652.075195 
	C866.012146,652.953857 864.496826,653.861084 862.981567,654.768311 
	C862.697083,654.940125 862.412659,655.112000 861.478760,655.200073 
	C859.214111,656.009460 857.598877,656.902588 855.983704,657.795715 
	C855.693420,657.959717 855.403076,658.123779 854.434509,658.202148 
	C844.636719,660.585205 835.509583,663.026917 826.414795,665.583496 
	C825.804688,665.755005 825.439026,666.796021 824.959717,667.432617 
	C824.529175,667.596069 824.098694,667.759583 823.033813,667.731567 
	C816.499023,668.222778 810.611511,669.324280 804.695740,669.506287 
	C789.494263,669.974060 774.280762,670.074707 759.071106,670.234924 
	C753.714050,670.291382 748.354309,670.094666 742.995789,670.013550 
	C741.911621,670.772888 739.896973,671.515747 739.883179,672.294128 
	C739.680176,683.749390 739.743347,695.209290 739.743347,707.436523 
	C752.837585,707.436523 765.073792,707.436523 778.791016,707.436523 
	C770.300598,714.519592 763.053406,720.530701 755.853333,726.597900 
	C754.138672,728.042725 752.582153,729.675293 751.037354,731.936523 
	C752.207642,733.382019 753.293518,734.112732 754.379333,734.843445 
	C754.829895,735.109436 755.280457,735.375427 755.911499,736.234131 
	C757.209351,737.491394 758.326721,738.155945 759.444153,738.820435 
M382.811951,602.316162 
	C388.351105,602.316162 393.890259,602.316162 399.473450,602.316162 
	C399.473450,598.835449 399.473450,596.113892 399.473450,593.092407 
	C388.470184,593.092407 377.768646,593.092407 366.514526,592.989807 
	C366.328644,593.012939 366.142731,593.036133 365.081848,592.827148 
	C362.082092,592.942261 359.082306,593.057434 355.504883,593.246521 
	C355.314819,593.207031 355.124756,593.167480 354.054810,592.807007 
	C345.191406,592.807007 336.328003,592.807007 326.545380,592.807007 
	C328.406494,596.609741 324.506592,602.043274 331.357025,602.085938 
	C347.908356,602.188782 364.461212,602.047180 381.409607,602.287170 
	C381.409607,602.287170 381.872528,602.136536 382.811951,602.316162 
M369.876007,614.441650 
	C369.248474,614.612549 368.620941,614.783447 367.068237,615.109985 
	C327.907501,615.009521 288.746796,614.894592 249.585999,614.816162 
	C234.980911,614.786926 224.316925,625.281616 224.246216,639.870850 
	C224.158981,657.868774 224.161331,675.867676 224.250046,693.865601 
	C224.318405,707.736328 235.520721,718.760925 249.408524,718.762146 
	C402.394287,718.775818 555.380066,718.778992 708.365845,718.784851 
	C710.313477,718.784973 712.261169,718.784912 714.727356,718.784912 
	C714.727356,700.430786 714.769897,682.647827 714.614624,664.866638 
	C714.605896,663.869385 713.141479,662.307556 712.060913,661.981323 
	C685.279968,653.896912 662.403870,639.277466 641.800659,620.664917 
	C638.793884,617.948669 636.272766,614.619263 630.961182,614.643250 
	C575.134216,614.894958 519.305603,614.768005 463.477478,614.790710 
	C432.320312,614.803406 401.163239,614.900513 369.876007,614.441650 
M281.705994,364.789948 
	C280.800995,365.517670 279.896027,366.245392 278.595947,367.420471 
	C277.845154,367.655304 277.094360,367.890106 275.533356,368.069916 
	C274.044556,369.106750 272.555725,370.143555 270.670471,371.721375 
	C264.963593,374.885620 259.256683,378.049866 253.549789,381.214111 
	C256.180298,382.282349 258.600525,382.282562 261.020782,382.282288 
	C370.999298,382.270447 480.977814,382.287445 590.956177,382.140472 
	C595.341553,382.134613 598.613464,383.520569 601.748291,386.188110 
	C611.612122,394.581543 621.330933,403.164032 631.511963,411.155945 
	C635.078064,413.955231 634.841064,416.284393 633.767822,419.973816 
	C630.111206,432.543762 625.338013,445.031921 623.684387,457.897491 
	C617.922607,502.724182 630.525085,542.609131 659.801514,576.839783 
	C679.858582,600.290955 705.255188,615.895264 735.179016,623.899231 
	C771.856201,633.709534 807.634705,631.144897 842.489014,616.069336 
	C875.040039,601.989929 899.243469,578.806213 915.639954,547.616638 
	C929.920349,520.452454 935.529724,491.391968 932.193542,460.769928 
	C929.968506,440.346558 923.970886,420.989410 914.053772,403.062012 
	C908.954407,393.843903 902.419556,385.419861 896.454529,376.519318 
	C856.205627,449.682068 816.525879,521.810059 776.454224,594.650635 
	C747.191223,545.312500 718.657227,496.697662 691.081421,447.111847 
	C707.347412,446.250458 722.959656,446.203247 738.570129,446.346130 
	C739.734131,446.356781 741.345581,447.455566 741.972961,448.510162 
	C749.277710,460.789032 756.420349,473.164215 763.633728,485.497620 
	C767.498047,492.104675 771.416382,498.680176 775.967529,506.382172 
	C805.545105,452.743988 834.454285,400.317902 863.319946,347.970642 
	C825.094849,324.244965 783.855347,317.259033 740.668030,328.099091 
	C697.609619,338.906799 664.248535,364.098694 641.571350,403.257568 
	C631.454895,394.530304 621.670959,386.052979 611.837280,377.633759 
	C609.498108,375.631042 609.299377,373.620453 611.110840,371.174133 
	C617.225708,362.915924 622.627136,354.018036 629.501465,346.455658 
	C645.946960,328.363983 664.732971,313.110046 687.231018,302.896576 
	C690.958740,301.204315 694.565735,299.246185 698.228516,297.410919 
	C698.180298,297.009521 698.132080,296.608154 698.083862,296.206757 
	C696.377136,296.206757 694.670410,296.211365 692.963684,296.206055 
	C669.642517,296.133514 646.321350,296.059540 622.791077,295.317383 
	C620.886047,293.345703 619.248596,293.281677 617.129700,296.192932 
	C614.753113,296.127747 612.376587,296.062592 609.848755,295.266296 
	C609.190491,294.584259 608.420410,293.234741 607.891235,293.323395 
	C602.553040,294.217773 597.580505,294.043610 593.207703,290.202332 
	C592.634216,289.698517 591.004333,290.528137 589.866516,290.514221 
	C583.363892,290.434814 576.925842,291.498566 570.332947,290.279694 
	C563.527161,289.021423 556.993652,290.513336 551.118408,296.198395 
	C548.412292,296.130157 545.706177,296.061920 542.844666,295.381561 
	C541.896423,295.585968 540.948181,295.790375 539.082031,296.199585 
	C512.054688,296.131470 485.027405,296.063354 457.998749,295.215240 
	C457.820984,294.003815 457.643188,292.792419 457.215576,289.878418 
	C453.512268,292.340088 450.756165,294.172150 447.215546,296.209198 
	C446.143707,296.140076 445.071838,296.070953 443.864014,295.303101 
	C441.452911,291.715668 439.501587,291.977020 437.183380,296.209229 
	C435.788910,296.139984 434.394470,296.070740 432.817841,295.319672 
	C430.240814,292.499481 427.837677,291.419830 425.084106,296.207611 
	C417.426056,296.671326 409.676514,295.117828 402.350403,299.533234 
	C392.873474,305.244934 382.880096,310.099731 372.947845,314.489624 
	C372.596710,312.367065 372.380157,310.208221 371.822632,308.141357 
	C371.623199,307.402161 370.684479,306.636322 369.915466,306.373596 
	C369.539368,306.245056 368.460388,307.129517 368.243866,307.746460 
	C366.785034,311.903656 365.472168,316.112091 363.707428,320.777222 
	C362.548340,321.213593 361.389252,321.649963 359.383331,322.043427 
	C356.879272,322.022217 354.203735,321.739227 353.698822,325.946625 
	C349.637726,328.223755 345.596161,330.536682 341.512177,332.772064 
	C321.713867,343.608643 301.904114,354.424438 281.705994,364.789948 
M578.734436,484.477844 
	C577.815369,464.465637 579.867004,444.733948 585.049133,424.758148 
	C582.532288,424.758148 580.731689,424.758331 578.931091,424.758118 
	C510.967529,424.750275 443.003967,424.765930 375.040405,424.725861 
	C333.562988,424.701416 292.085663,424.559967 250.608231,424.536591 
	C235.909302,424.528290 224.509796,434.903046 224.288513,448.830170 
	C223.994858,467.314270 223.891708,485.807678 224.121490,504.291901 
	C224.307739,519.274170 234.270203,528.720642 249.223022,528.723877 
	C359.496490,528.747498 469.769928,528.753296 580.043396,528.764771 
	C581.653748,528.764954 583.264099,528.764771 584.378052,528.764771 
	C582.458923,514.001343 580.604370,499.734131 578.734436,484.477844 
M339.499817,746.282776 
	C356.037018,746.282776 372.574249,746.282776 389.112274,746.282776 
	C388.977570,738.213318 388.977539,738.201538 382.184906,738.217651 
	C353.576904,738.285400 324.968903,738.357239 296.360931,738.444336 
	C294.920380,738.448669 293.480286,738.609863 291.953705,738.703308 
	C291.953705,741.347168 291.953705,743.595764 291.953705,746.283875 
	C307.645905,746.283875 323.072845,746.283875 339.499817,746.282776 
M454.264771,411.767365 
	C457.971893,411.635925 462.988892,412.735443 463.051514,407.172089 
	C463.119293,401.147980 457.765259,402.920715 454.308472,402.902344 
	C432.696289,402.787506 411.083099,402.851105 389.470245,402.873077 
	C388.027527,402.874542 386.584930,403.019287 385.109528,403.099182 
	C385.109528,406.174072 385.109528,408.885864 385.109528,411.767487 
	C408.107330,411.767487 430.713165,411.767487 454.264771,411.767365 
M354.414917,313.808716 
	C354.740570,312.478455 355.066193,311.148163 355.689484,308.601807 
	C351.415680,312.288025 351.415680,312.288025 354.414917,313.808716 
z"/>
<path fill="#1D1D30" opacity="1.000000" stroke="none" 
	d="
M183.024536,570.265564 
	C183.024536,570.265564 182.614548,570.318909 182.407928,570.325928 
	C182.271500,567.684875 182.341690,565.036804 183.095108,562.177368 
	C184.519791,561.926147 185.261261,561.886414 186.002716,561.846680 
	C201.300812,561.933289 216.599243,561.981384 231.896942,562.113281 
	C296.959930,562.674133 362.022644,563.259827 427.539185,564.301270 
	C427.995605,565.492615 427.998291,566.219055 427.537903,566.975952 
	C424.246796,567.164490 421.418793,567.322632 418.150574,567.533936 
	C410.063873,567.511475 402.417450,567.397461 394.770721,567.366821 
	C367.178619,567.256165 339.586426,567.173462 311.994263,567.080261 
	C269.574524,566.846130 227.133575,565.520325 184.102539,569.685913 
	C183.280319,569.967163 183.152420,570.116333 183.024536,570.265564 
z"/>
<path fill="#8B90CD" opacity="1.000000" stroke="none" 
	d="
M479.001068,273.045502 
	C452.431732,273.304779 425.862396,273.564056 398.832886,273.694519 
	C401.532379,272.843903 404.692047,271.491425 407.851776,271.491241 
	C524.227234,271.484589 640.602722,271.610474 756.978210,271.693329 
	C768.298767,271.701385 779.619507,271.484406 790.940063,271.494568 
	C798.662903,271.501495 798.662842,271.597046 798.324463,279.663269 
	C797.659058,280.040070 797.350281,280.003418 797.039429,279.984406 
	C796.799438,278.541504 796.559509,277.098572 795.951416,274.992462 
	C786.721375,274.216003 777.859497,274.102692 768.997559,273.989410 
	C692.994019,273.957520 616.990417,273.925629 540.172607,273.673279 
	C534.575073,273.344299 529.791870,273.235718 525.008667,273.127167 
	C519.982849,273.097656 514.956970,273.068146 509.090790,273.030701 
	C507.500854,273.040283 506.751282,273.057800 506.001678,273.075317 
	C498.313019,273.053833 490.624329,273.032349 482.093018,273.005798 
	C480.500610,273.015625 479.750824,273.030579 479.001068,273.045502 
z"/>
<path fill="#9FA4EC" opacity="1.000000" stroke="none" 
	d="
M951.156860,572.736938 
	C952.900269,567.926086 954.862793,562.869019 956.861633,557.826294 
	C959.649170,550.793884 962.735901,543.866455 965.210815,536.726562 
	C970.455994,521.594727 972.081421,505.867981 973.193176,489.939697 
	C974.649597,469.074097 973.234009,448.493988 968.423096,428.284454 
	C963.571899,407.905853 955.659912,388.614349 943.251892,371.509979 
	C936.938477,362.806885 930.086304,354.495575 923.538452,345.960510 
	C922.546997,344.668182 921.887024,343.121552 921.040527,341.339783 
	C933.388245,352.095886 942.602783,365.701050 950.881836,379.899017 
	C970.108276,412.870728 977.652527,448.802734 975.937195,486.635803 
	C974.556580,517.085266 966.911926,545.975098 951.156860,572.736938 
z"/>
<path fill="#9FA2EC" opacity="1.000000" stroke="none" 
	d="
M182.638184,598.380676 
	C183.535263,599.373291 184.890671,600.808167 184.894226,602.246338 
	C185.006317,647.674316 185.000793,693.102661 184.925949,738.530823 
	C184.923538,739.989319 184.006317,741.446289 183.168335,742.986084 
	C182.678757,742.092224 182.411819,741.116211 182.411896,740.140198 
	C182.415527,693.034973 182.442215,645.929688 182.638184,598.380676 
z"/>
<path fill="#A8ADFA" opacity="1.000000" stroke="none" 
	d="
M201.542633,381.952454 
	C200.479782,382.701599 198.993378,383.786011 197.430191,383.911133 
	C193.910172,384.192932 190.352112,383.999573 186.809540,383.999573 
	C186.768234,384.412140 186.726929,384.824677 186.685623,385.237244 
	C188.211777,386.046753 189.737915,386.856232 192.260483,388.194275 
	C183.110779,388.511871 185.101593,394.863525 185.088120,399.532532 
	C184.948364,447.925934 185.016373,496.319916 184.945618,544.713623 
	C184.942673,546.721741 184.141373,548.728699 183.337036,550.868286 
	C182.853699,549.517639 182.650208,548.034973 182.650696,546.552368 
	C182.668274,492.655334 182.704803,438.758301 182.901749,384.164551 
	C183.698883,382.922333 184.332993,382.376801 184.967102,381.831268 
	C190.339478,381.838287 195.711838,381.845276 201.542633,381.952454 
z"/>
<path fill="#A8ADFA" opacity="1.000000" stroke="none" 
	d="
M369.952789,290.848572 
	C370.555756,292.358429 371.158722,293.868256 371.308716,294.243896 
	C367.087830,298.926422 363.217865,303.219666 360.160156,306.611816 
	C357.301422,306.611816 355.243835,307.002441 353.430267,306.504486 
	C351.529266,305.982513 349.862427,304.607849 348.057556,302.968658 
	C348.031158,301.956970 348.040497,301.582489 348.049835,301.207977 
	C349.158813,300.532288 350.267792,299.856598 351.909668,299.311401 
	C353.306183,298.675171 354.169800,297.908478 355.033417,297.141785 
	C355.253784,296.887299 355.523010,296.704987 356.421173,296.638336 
	C357.681641,296.184418 358.362000,295.687012 359.042389,295.189575 
	C360.363007,294.440704 361.683624,293.691833 363.642181,292.917969 
	C364.877045,292.375458 365.473999,291.857910 366.070953,291.340393 
	C366.070953,291.340393 366.449799,291.045929 367.064331,291.035400 
	C368.436829,290.966095 369.194824,290.907318 369.952789,290.848572 
z"/>
<path fill="#9FA4EC" opacity="1.000000" stroke="none" 
	d="
M743.356323,670.154419 
	C748.354309,670.094666 753.714050,670.291382 759.071106,670.234924 
	C774.280762,670.074707 789.494263,669.974060 804.695740,669.506287 
	C810.611511,669.324280 816.499023,668.222778 822.686707,667.731750 
	C812.381836,669.508545 801.821838,671.367737 791.190002,672.614624 
	C775.270874,674.481445 759.478088,672.396851 743.356323,670.154419 
z"/>
<path fill="#A8ADFA" opacity="1.000000" stroke="none" 
	d="
M286.153931,335.572144 
	C286.822845,336.427246 287.187012,337.354980 287.456787,338.309387 
	C287.532532,338.577301 287.330750,338.923676 287.601807,337.794220 
	C281.353455,340.905212 275.863220,343.347534 270.657166,346.292236 
	C260.301575,352.149780 250.221375,358.501404 239.787201,364.209869 
	C234.722855,366.980530 229.116653,368.760803 223.351837,370.979126 
	C232.119141,365.688263 241.242950,360.323059 250.473557,355.148376 
	C262.208252,348.569824 274.029510,342.145599 286.153931,335.572144 
z"/>
<path fill="#9FA4EC" opacity="1.000000" stroke="none" 
	d="
M920.921509,340.671936 
	C919.545715,340.356934 917.679382,340.097321 916.672180,339.028320 
	C904.695984,326.316925 889.940735,317.319397 875.382629,308.099640 
	C870.531982,305.027679 865.124329,302.843964 860.031555,300.140656 
	C858.313843,299.228821 856.782288,297.966400 855.073853,296.544922 
	C879.500488,307.100372 901.987488,321.006592 920.921509,340.671936 
z"/>
<path fill="#8B90CD" opacity="1.000000" stroke="none" 
	d="
M842.014282,285.062317 
	C844.460022,284.856384 846.905823,284.650452 850.059631,284.147095 
	C851.437256,283.176575 852.679932,282.511658 852.689758,281.829041 
	C852.819763,272.802124 852.776428,263.772736 852.776428,253.951874 
	C847.097839,257.076965 842.243164,259.748627 837.291565,262.315399 
	C837.194580,262.210541 837.000732,262.000793 837.000732,262.000793 
	C842.345886,258.167694 847.691101,254.334579 854.045654,249.777603 
	C854.045654,262.156921 854.045654,273.199646 854.045654,284.688232 
	C849.888123,285.794373 845.209167,287.039276 840.117371,288.721466 
	C839.441040,289.171997 839.177551,289.185242 838.914124,289.198456 
	C838.800659,288.553192 838.687195,287.907928 839.073730,287.040222 
	C840.387207,286.232666 841.200745,285.647491 842.014282,285.062317 
z"/>
<path fill="#9FA2EC" opacity="1.000000" stroke="none" 
	d="
M243.446747,761.017578 
	C244.184036,760.271118 245.372101,759.111328 246.570847,759.100281 
	C260.271576,758.973022 273.974060,758.995422 287.675537,759.073364 
	C288.696411,759.079163 289.713074,759.818054 290.868378,760.584717 
	C275.304199,761.014771 259.603333,761.076294 243.446747,761.017578 
z"/>
<path fill="#A8ADFA" opacity="1.000000" stroke="none" 
	d="
M345.003662,304.039124 
	C345.904724,305.537994 346.805786,307.036835 347.838898,308.755371 
	C346.678833,310.477142 345.441406,312.313751 344.305878,313.999084 
	C341.679413,312.725403 339.089172,311.469299 336.229492,309.762695 
	C335.986450,308.906799 336.012878,308.501434 336.039276,308.096069 
	C337.258331,307.273895 338.477386,306.451691 340.354187,305.653931 
	C341.678650,305.135803 342.345367,304.593262 343.012085,304.050720 
	C343.012054,304.050690 343.253418,303.792450 343.774475,303.867737 
	C344.531586,303.975067 344.767609,304.007111 345.003662,304.039124 
z"/>
<path fill="#8B90CD" opacity="1.000000" stroke="none" 
	d="
M826.011047,271.049072 
	C825.115540,271.516815 824.219971,271.984558 822.855713,272.782776 
	C821.874207,273.693970 821.361389,274.274658 820.848511,274.855408 
	C817.887207,275.953400 814.925842,277.051361 811.591614,278.134644 
	C819.585999,272.812988 827.953186,267.506012 836.660522,262.099915 
	C837.000732,262.000793 837.194580,262.210541 837.112610,262.565918 
	C836.331299,263.909760 835.631958,264.898163 834.932617,265.886597 
	C834.932617,265.886566 834.924133,265.920898 834.565063,265.985962 
	C831.474304,267.717041 828.742676,269.383057 826.011047,271.049072 
z"/>
<path fill="#9FA4EC" opacity="1.000000" stroke="none" 
	d="
M825.341370,667.519104 
	C825.439026,666.796021 825.804688,665.755005 826.414795,665.583496 
	C835.509583,663.026917 844.636719,660.585205 854.180908,658.168457 
	C844.978088,661.348877 835.350586,664.477234 825.341370,667.519104 
z"/>
<path fill="#A8ADFA" opacity="1.000000" stroke="none" 
	d="
M379.896606,284.959412 
	C380.613007,286.262482 381.329407,287.565582 381.736084,288.305328 
	C379.489685,289.968842 378.017212,291.622559 376.204407,292.191132 
	C375.110901,292.534088 373.488373,291.190491 372.050659,289.944458 
	C372.004272,288.877869 372.010834,288.471466 372.017395,288.065094 
	C372.658997,287.663391 373.300568,287.261719 374.544373,286.832611 
	C375.786560,286.309052 376.426483,285.812927 377.066406,285.316772 
	C377.066406,285.316772 377.377808,285.000732 377.939758,284.989075 
	C378.966675,284.971436 379.431641,284.965424 379.896606,284.959412 
z"/>
<path fill="#A8ADFA" opacity="1.000000" stroke="none" 
	d="
M222.622452,371.030273 
	C221.034531,372.738403 219.351105,374.996094 217.103973,376.212494 
	C213.497971,378.164490 209.518951,379.427368 205.287842,380.968231 
	C210.676743,377.674164 216.475372,374.393372 222.622452,371.030273 
z"/>
<path fill="#9FA4EC" opacity="1.000000" stroke="none" 
	d="
M938.451294,593.207458 
	C941.856506,587.285950 945.556824,581.191223 949.597412,575.037109 
	C946.207153,580.996460 942.476746,587.015320 938.451294,593.207458 
z"/>
<path fill="#9FA2EC" opacity="1.000000" stroke="none" 
	d="
M779.311523,761.375488 
	C778.954529,759.072327 778.970764,756.945435 778.992920,754.410522 
	C781.590454,755.831238 784.182068,757.659973 787.015503,760.105713 
	C787.232727,761.008057 787.208130,761.293213 787.183594,761.578430 
	C784.683960,761.569519 782.184326,761.560608 779.311523,761.375488 
z"/>
<path fill="#A8ADFA" opacity="1.000000" stroke="none" 
	d="
M297.653839,329.171722 
	C295.464172,332.954803 292.926910,336.760468 286.957214,335.612854 
	C290.116669,333.389343 293.710999,331.291077 297.653839,329.171722 
z"/>
<path fill="#9FA2EC" opacity="1.000000" stroke="none" 
	d="
M182.945465,754.984985 
	C184.594147,756.744019 186.242828,758.502991 187.948822,760.599609 
	C183.293762,762.391357 181.829971,760.213074 182.436279,755.427490 
	C182.553467,755.003845 182.945450,754.984985 182.945465,754.984985 
z"/>
<path fill="#A8ADFA" opacity="1.000000" stroke="none" 
	d="
M185.997742,561.449585 
	C185.261261,561.886414 184.519791,561.926147 183.404678,561.977905 
	C182.917847,559.281921 182.804672,556.573914 182.828751,553.432861 
	C183.974930,555.684021 184.983856,558.368286 185.997742,561.449585 
z"/>
<path fill="#9FA2EC" opacity="1.000000" stroke="none" 
	d="
M546.436523,761.018066 
	C549.361450,757.549683 553.034973,758.706909 556.869324,760.530640 
	C553.633484,760.971680 550.257629,761.055664 546.436523,761.018066 
z"/>
<path fill="#8B90CD" opacity="1.000000" stroke="none" 
	d="
M318.927612,318.882507 
	C315.845917,320.258270 312.764221,321.634033 309.309021,322.986328 
	C312.099304,321.110046 315.263153,319.257202 318.781067,317.379822 
	C319.135162,317.355286 319.391266,317.660919 319.282288,318.041626 
	C319.091400,318.575745 319.009491,318.729126 318.927612,318.882507 
z"/>
<path fill="#9FA4EC" opacity="1.000000" stroke="none" 
	d="
M920.390503,614.059509 
	C922.156494,611.813782 924.240112,609.454590 926.666138,607.049500 
	C924.908447,609.317810 922.808228,611.631897 920.390503,614.059509 
z"/>
<path fill="#A8ADFA" opacity="1.000000" stroke="none" 
	d="
M385.430054,280.692474 
	C386.391418,282.458405 387.037750,284.236237 387.684052,286.014069 
	C387.450256,286.316681 387.216461,286.619324 386.982666,286.921936 
	C385.741302,286.093445 384.499908,285.264954 383.118530,283.835144 
	C382.990387,282.841736 383.002319,282.449585 383.014221,282.057465 
	C383.714478,281.606445 384.414734,281.155396 385.430054,280.692474 
z"/>
<path fill="#9FA2EC" opacity="1.000000" stroke="none" 
	d="
M315.433868,761.144348 
	C318.071808,757.936401 321.414062,758.766296 324.904419,760.660645 
	C321.958008,761.096375 318.913605,761.192932 315.433868,761.144348 
z"/>
<path fill="#9FA2EC" opacity="1.000000" stroke="none" 
	d="
M575.428467,761.005127 
	C577.668457,757.687500 580.685547,758.699768 583.874878,760.531494 
	C581.295166,760.963501 578.580872,761.044434 575.428467,761.005127 
z"/>
<path fill="#9FA2EC" opacity="1.000000" stroke="none" 
	d="
M563.428711,761.002563 
	C565.667542,757.690247 568.684753,758.700134 571.874878,760.526733 
	C569.295715,760.958679 566.581421,761.040039 563.428711,761.002563 
z"/>
<path fill="#8B90CD" opacity="1.000000" stroke="none" 
	d="
M849.054321,293.581848 
	C846.723022,293.359924 844.211914,292.837982 841.358887,291.773071 
	C841.034302,290.734894 841.051697,290.239594 841.069153,289.744324 
	C843.670959,290.923523 846.272705,292.102692 849.054321,293.581848 
z"/>
<path fill="#A8ADFA" opacity="1.000000" stroke="none" 
	d="
M327.551819,312.826904 
	C328.085083,314.235657 328.299622,315.666718 328.614288,317.765900 
	C327.216461,317.168823 326.284912,316.770874 325.175964,315.833374 
	C325.009338,314.904358 325.020050,314.514923 325.030762,314.125488 
	C325.764862,313.700073 326.498993,313.274689 327.551819,312.826904 
z"/>
<path fill="#9FA2EC" opacity="1.000000" stroke="none" 
	d="
M771.129639,748.582092 
	C769.522949,747.525085 767.800049,746.155029 766.019531,744.446411 
	C767.645691,745.494873 769.329590,746.881958 771.129639,748.582092 
z"/>
<path fill="#1D1D30" opacity="1.000000" stroke="none" 
	d="
M181.892426,575.228271 
	C182.228745,576.460205 182.329147,577.953369 182.290604,579.739929 
	C181.986618,578.518677 181.821564,577.004089 181.892426,575.228271 
z"/>
<path fill="#9FA2EC" opacity="1.000000" stroke="none" 
	d="
M637.397949,761.019958 
	C638.267334,758.294861 639.914734,758.409241 641.902832,760.568298 
	C640.607300,760.976990 639.205933,761.059143 637.397949,761.019958 
z"/>
<path fill="#9FA4EC" opacity="1.000000" stroke="none" 
	d="
M910.321533,623.935425 
	C911.214172,622.706482 912.431702,621.422363 914.011597,620.145386 
	C913.131409,621.395142 911.888916,622.637634 910.321533,623.935425 
z"/>
<path fill="#9FA4EC" opacity="1.000000" stroke="none" 
	d="
M874.283020,648.799316 
	C875.191589,647.925415 876.431763,647.006165 878.049622,646.128723 
	C877.156372,647.031616 875.885498,647.892822 874.283020,648.799316 
z"/>
<path fill="#9FA4EC" opacity="1.000000" stroke="none" 
	d="
M856.330444,657.781738 
	C857.598877,656.902588 859.214111,656.009460 861.224792,655.172485 
	C859.972595,656.075012 858.324890,656.921448 856.330444,657.781738 
z"/>
<path fill="#9FA4EC" opacity="1.000000" stroke="none" 
	d="
M863.316528,654.743286 
	C864.496826,653.861084 866.012146,652.953857 867.897522,652.080139 
	C866.728882,652.981873 865.190125,653.850098 863.316528,654.743286 
z"/>
<path fill="#8B90CD" opacity="1.000000" stroke="none" 
	d="
M382.667328,282.073029 
	C383.002319,282.449585 382.990387,282.841736 382.950623,283.524200 
	C382.082672,284.052460 381.242584,284.290375 380.149536,284.743866 
	C379.431641,284.965424 378.966675,284.971436 378.154785,284.934570 
	C379.312073,283.957306 380.816254,283.022949 382.667328,282.073029 
z"/>
<path fill="#8B90CD" opacity="1.000000" stroke="none" 
	d="
M302.718994,326.215790 
	C301.808350,327.109802 300.564148,328.000641 298.953064,328.824463 
	C299.852570,327.909149 301.118988,327.060883 302.718994,326.215790 
z"/>
<path fill="#8B90CD" opacity="1.000000" stroke="none" 
	d="
M371.680359,288.093079 
	C372.010834,288.471466 372.004272,288.877869 371.978333,289.587097 
	C371.431519,290.085785 370.904083,290.281647 370.164703,290.663055 
	C369.194824,290.907318 368.436829,290.966095 367.299988,290.990417 
	C368.395203,290.011017 369.869263,289.066040 371.680359,288.093079 
z"/>
<path fill="#9FA2EC" opacity="1.000000" stroke="none" 
	d="
M538.381775,761.018066 
	C539.267151,760.688843 540.543823,760.479736 541.914612,760.583313 
	C540.930176,760.976685 539.851624,761.057434 538.381775,761.018066 
z"/>
<path fill="#1D1D30" opacity="1.000000" stroke="none" 
	d="
M182.832336,754.653809 
	C182.945450,754.984985 182.553467,755.003845 182.358673,755.027588 
	C182.016937,753.833191 181.869965,752.614990 181.971497,751.166931 
	C182.386414,752.065552 182.552826,753.194031 182.832336,754.653809 
z"/>
<path fill="#8B90CD" opacity="1.000000" stroke="none" 
	d="
M345.281128,303.879608 
	C344.767609,304.007111 344.531586,303.975067 343.950378,303.850647 
	C344.866608,302.920532 346.127991,302.082825 347.719604,301.226562 
	C348.040497,301.582489 348.031158,301.956970 347.990723,302.610046 
	C347.159271,303.165741 346.358948,303.442932 345.281128,303.879608 
z"/>
<path fill="#9FA2EC" opacity="1.000000" stroke="none" 
	d="
M763.731567,741.759705 
	C762.592834,741.292603 761.347656,740.528931 760.046509,739.431396 
	C761.202087,739.886047 762.413635,740.674561 763.731567,741.759705 
z"/>
<path fill="#9FA2EC" opacity="1.000000" stroke="none" 
	d="
M679.382751,761.033936 
	C680.268677,760.702393 681.544800,760.494263 682.913940,760.600342 
	C681.929016,760.995544 680.850952,761.076477 679.382751,761.033936 
z"/>
<path fill="#8B90CD" opacity="1.000000" stroke="none" 
	d="
M331.725281,310.227753 
	C330.848450,311.087463 329.646484,311.962616 328.100037,312.787567 
	C328.970398,311.906006 330.185303,311.074615 331.725281,310.227753 
z"/>
<path fill="#8B90CD" opacity="1.000000" stroke="none" 
	d="
M389.693542,278.065186 
	C389.981293,278.475983 389.943573,278.880371 389.597229,279.643799 
	C388.840698,280.299652 388.392853,280.596497 387.945038,280.893311 
	C387.433075,280.864044 386.921112,280.834717 386.043274,280.686096 
	C386.907593,279.730743 388.137848,278.894775 389.693542,278.065186 
z"/>
<path fill="#8B90CD" opacity="1.000000" stroke="none" 
	d="
M810.767700,278.231689 
	C809.839355,279.096100 808.576538,279.986877 806.952759,280.821014 
	C807.872253,279.928955 809.152710,279.093506 810.767700,278.231689 
z"/>
<path fill="#1D1D30" opacity="1.000000" stroke="none" 
	d="
M184.753326,381.626892 
	C184.332993,382.376801 183.698883,382.922333 182.835205,383.695648 
	C183.250259,383.089783 183.894897,382.256134 184.753326,381.626892 
z"/>
<path fill="#9FA4EC" opacity="1.000000" stroke="none" 
	d="
M900.334717,631.977783 
	C901.085815,631.039673 902.144897,630.013367 903.559937,628.978638 
	C902.824829,629.943359 901.733826,630.916443 900.334717,631.977783 
z"/>
<path fill="#9FA4EC" opacity="1.000000" stroke="none" 
	d="
M930.482178,603.316101 
	C930.855713,602.325134 931.534485,601.214233 932.561951,600.035767 
	C932.202942,601.044250 931.495178,602.120239 930.482178,603.316101 
z"/>
<path fill="#9FA4EC" opacity="1.000000" stroke="none" 
	d="
M891.298340,638.766113 
	C891.894836,637.923767 892.805176,637.030151 894.067749,636.152161 
	C893.484009,637.016846 892.548035,637.865845 891.298340,638.766113 
z"/>
<path fill="#9FA2EC" opacity="1.000000" stroke="none" 
	d="
M754.225525,734.556152 
	C753.293518,734.112732 752.207642,733.382019 751.073975,732.293335 
	C752.041382,732.713135 753.056580,733.491028 754.225525,734.556152 
z"/>
<path fill="#9FA2EC" opacity="1.000000" stroke="none" 
	d="
M759.288208,738.535767 
	C758.326721,738.155945 757.209351,737.491394 756.023132,736.479370 
	C757.013611,736.838318 758.072937,737.544739 759.288208,738.535767 
z"/>
<path fill="#9FA4EC" opacity="1.000000" stroke="none" 
	d="
M934.444946,598.235352 
	C934.853027,597.296692 935.544434,596.201111 936.583618,595.040649 
	C936.197144,596.010010 935.462769,597.044250 934.444946,598.235352 
z"/>
<path fill="#8B90CD" opacity="1.000000" stroke="none" 
	d="
M354.722656,297.147644 
	C354.169800,297.908478 353.306183,298.675171 352.232452,299.260681 
	C352.818848,298.437469 353.615356,297.795502 354.722656,297.147644 
z"/>
<path fill="#9FA2EC" opacity="1.000000" stroke="none" 
	d="
M300.359802,761.133362 
	C300.952484,760.786316 301.907135,760.583008 302.931702,760.687683 
	C302.241699,761.089478 301.481720,761.183289 300.359802,761.133362 
z"/>
<path fill="#9FA2EC" opacity="1.000000" stroke="none" 
	d="
M333.359406,761.152832 
	C333.953278,760.798340 334.908447,760.591675 335.932800,760.694336 
	C335.241547,761.102661 334.481140,761.201660 333.359406,761.152832 
z"/>
<path fill="#9FA2EC" opacity="1.000000" stroke="none" 
	d="
M586.358215,761.005737 
	C586.945679,760.688293 587.900757,760.492004 588.932434,760.592773 
	C588.247925,760.968872 587.486938,761.047913 586.358215,761.005737 
z"/>
<path fill="#9FA4EC" opacity="1.000000" stroke="none" 
	d="
M796.853821,280.193115 
	C797.350281,280.003418 797.659058,280.040070 798.198792,280.077271 
	C798.581177,280.484070 798.730591,280.907959 798.898926,281.669861 
	C798.167969,281.472534 797.418091,280.937195 796.853821,280.193115 
z"/>
<path fill="#1D1D30" opacity="1.000000" stroke="none" 
	d="
M787.409729,761.733154 
	C787.208130,761.293213 787.232727,761.008057 787.297607,760.295288 
	C788.014709,760.197021 788.691650,760.526245 789.368530,760.855347 
	C788.791016,761.199524 788.213440,761.543762 787.409729,761.733154 
z"/>
<path fill="#9FA4EC" opacity="1.000000" stroke="none" 
	d="
M881.311279,644.875610 
	C881.842651,644.275879 882.694031,643.658813 883.900024,643.075439 
	C883.380188,643.692139 882.505676,644.275208 881.311279,644.875610 
z"/>
<path fill="#9FA2EC" opacity="1.000000" stroke="none" 
	d="
M778.848816,753.726929 
	C778.050720,753.584229 777.104492,753.166992 776.074219,752.429565 
	C776.893677,752.557068 777.797241,753.004700 778.848816,753.726929 
z"/>
<path fill="#8B90CD" opacity="1.000000" stroke="none" 
	d="
M324.711365,314.114136 
	C325.020050,314.514923 325.009338,314.904358 324.974304,315.582886 
	C324.176849,315.921967 323.403717,315.971924 322.245972,315.970154 
	C322.704895,315.313171 323.548431,314.707977 324.711365,314.114136 
z"/>
<path fill="#9FA4EC" opacity="1.000000" stroke="none" 
	d="
M841.050110,289.579224 
	C841.051697,290.239594 841.034302,290.734894 841.028198,291.601746 
	C840.361023,291.262817 839.682373,290.552338 838.958984,289.520142 
	C839.177551,289.185242 839.441040,289.171997 840.098022,289.115662 
	C840.737305,289.082184 840.917175,289.196014 841.050110,289.579224 
z"/>
<path fill="#9FA2EC" opacity="1.000000" stroke="none" 
	d="
M659.320679,761.014282 
	C659.626953,760.724182 660.262512,760.551880 660.953247,760.639038 
	C660.555542,760.976379 660.102783,761.054260 659.320679,761.014282 
z"/>
<path fill="#9FA2EC" opacity="1.000000" stroke="none" 
	d="
M512.321655,761.019775 
	C512.626831,760.729614 513.261719,760.554993 513.952332,760.639648 
	C513.555847,760.977783 513.103638,761.056519 512.321655,761.019775 
z"/>
<path fill="#8B90CD" opacity="1.000000" stroke="none" 
	d="
M376.756531,285.322083 
	C376.426483,285.812927 375.786560,286.309052 374.818787,286.751801 
	C375.142853,286.241394 375.794769,285.784393 376.756531,285.322083 
z"/>
<path fill="#9FA2EC" opacity="1.000000" stroke="none" 
	d="
M328.321930,761.147217 
	C328.633301,760.824097 329.268646,760.644165 329.953003,760.734253 
	C329.549988,761.099609 329.097931,761.194946 328.321930,761.147217 
z"/>
<path fill="#8B90CD" opacity="1.000000" stroke="none" 
	d="
M365.769287,291.338257 
	C365.473999,291.857910 364.877045,292.375458 363.961060,292.844727 
	C364.250549,292.309723 364.859070,291.822968 365.769287,291.338257 
z"/>
<path fill="#9FA4EC" opacity="1.000000" stroke="none" 
	d="
M802.588135,282.735352 
	C802.658020,283.303772 802.400635,283.812836 802.143188,284.321930 
	C801.802612,284.080536 801.462036,283.839142 801.058472,283.329224 
	C801.417236,282.932465 801.839050,282.804260 802.588135,282.735352 
z"/>
<path fill="#8B90CD" opacity="1.000000" stroke="none" 
	d="
M335.720703,308.104187 
	C336.012878,308.501434 335.986450,308.906799 335.897339,309.610291 
	C335.296448,309.868347 334.758270,309.828339 333.822815,309.703247 
	C334.084381,309.116180 334.743256,308.614227 335.720703,308.104187 
z"/>
<path fill="#9FA2EC" opacity="1.000000" stroke="none" 
	d="
M234.320770,761.014343 
	C234.626511,760.724854 235.261932,760.551575 235.952942,760.637573 
	C235.555832,760.974670 235.103149,761.052612 234.320770,761.014343 
z"/>
<path fill="#8B90CD" opacity="1.000000" stroke="none" 
	d="
M358.730530,295.195282 
	C358.362000,295.687012 357.681641,296.184418 356.661560,296.585938 
	C357.020782,296.060303 357.719696,295.630646 358.730530,295.195282 
z"/>
<path fill="#8B90CD" opacity="1.000000" stroke="none" 
	d="
M342.692657,304.046204 
	C342.345367,304.593262 341.678650,305.135803 340.663940,305.587402 
	C341.001709,305.011536 341.687469,304.526611 342.692657,304.046204 
z"/>
<path fill="#9FA4EC" opacity="1.000000" stroke="none" 
	d="
M869.292053,651.742065 
	C869.598694,651.236694 870.215393,650.697266 871.168213,650.175720 
	C870.870239,650.698425 870.236206,651.203247 869.292053,651.742065 
z"/>
<path fill="#9FA4EC" opacity="1.000000" stroke="none" 
	d="
M885.285889,642.733032 
	C885.581360,642.226685 886.181091,641.685547 887.110718,641.158569 
	C886.823792,641.681152 886.206909,642.189697 885.285889,642.733032 
z"/>
<path fill="#9FA4EC" opacity="1.000000" stroke="none" 
	d="
M888.306519,640.897217 
	C888.574158,640.329468 889.155396,639.743103 890.074524,639.160828 
	C889.815002,639.736145 889.217590,640.307373 888.306519,640.897217 
z"/>
<path fill="#9FA4EC" opacity="1.000000" stroke="none" 
	d="
M896.280884,634.882446 
	C896.529663,634.339844 897.082031,633.743347 897.965088,633.135925 
	C897.725281,633.692810 897.154846,634.260681 896.280884,634.882446 
z"/>
<path fill="#040518" opacity="1.000000" stroke="none" 
	d="
M276.343567,368.124939 
	C277.094360,367.890106 277.845154,367.655304 279.100586,367.186707 
	C280.436279,366.384491 281.267334,365.816040 282.098389,365.247620 
	C301.904114,354.424438 321.713867,343.608643 341.512177,332.772064 
	C345.596161,330.536682 349.637726,328.223755 354.278503,325.634186 
	C356.648865,324.243286 358.439514,323.164825 360.230164,322.086365 
	C361.389252,321.649963 362.548340,321.213593 364.260437,320.474304 
	C367.578674,318.555450 370.343903,316.939453 373.109100,315.323486 
	C382.880096,310.099731 392.873474,305.244934 402.350403,299.533234 
	C409.676514,295.117828 417.426056,296.671326 425.970184,296.208923 
	C428.904175,296.140656 430.952087,296.071045 433.000000,296.001465 
	C434.394470,296.070740 435.788910,296.139984 438.010742,296.212738 
	C440.558746,296.144775 442.279388,296.073303 444.000000,296.001831 
	C445.071838,296.070953 446.143707,296.140076 448.051819,296.212463 
	C451.925415,296.142242 454.962738,296.068756 458.000092,295.995239 
	C485.027405,296.063354 512.054688,296.131470 539.908936,296.201233 
	C541.490601,296.133148 542.245300,296.063416 543.000061,295.993683 
	C545.706177,296.061920 548.412292,296.130157 552.017578,296.201599 
	C571.944519,296.135681 590.972290,296.066559 610.000000,295.997437 
	C612.376587,296.062592 614.753113,296.127747 617.973022,296.194275 
	C620.210938,296.125732 621.605591,296.055847 623.000183,295.985962 
	C646.321350,296.059540 669.642517,296.133514 692.963684,296.206055 
	C694.670410,296.211365 696.377136,296.206757 698.083862,296.206757 
	C698.132080,296.608154 698.180298,297.009521 698.228516,297.410919 
	C694.565735,299.246185 690.958740,301.204315 687.231018,302.896576 
	C664.732971,313.110046 645.946960,328.363983 629.501465,346.455658 
	C622.627136,354.018036 617.225708,362.915924 611.110840,371.174133 
	C609.299377,373.620453 609.498108,375.631042 611.837280,377.633759 
	C621.670959,386.052979 631.454895,394.530304 641.571350,403.257568 
	C664.248535,364.098694 697.609619,338.906799 740.668030,328.099091 
	C783.855347,317.259033 825.094849,324.244965 863.319946,347.970642 
	C834.454285,400.317902 805.545105,452.743988 775.967529,506.382172 
	C771.416382,498.680176 767.498047,492.104675 763.633728,485.497620 
	C756.420349,473.164215 749.277710,460.789032 741.972961,448.510162 
	C741.345581,447.455566 739.734131,446.356781 738.570129,446.346130 
	C722.959656,446.203247 707.347412,446.250458 691.081421,447.111847 
	C718.657227,496.697662 747.191223,545.312500 776.454224,594.650635 
	C816.525879,521.810059 856.205627,449.682068 896.454529,376.519318 
	C902.419556,385.419861 908.954407,393.843903 914.053772,403.062012 
	C923.970886,420.989410 929.968506,440.346558 932.193542,460.769928 
	C935.529724,491.391968 929.920349,520.452454 915.639954,547.616638 
	C899.243469,578.806213 875.040039,601.989929 842.489014,616.069336 
	C807.634705,631.144897 771.856201,633.709534 735.179016,623.899231 
	C705.255188,615.895264 679.858582,600.290955 659.801514,576.839783 
	C630.525085,542.609131 617.922607,502.724182 623.684387,457.897491 
	C625.338013,445.031921 630.111206,432.543762 633.767822,419.973816 
	C634.841064,416.284393 635.078064,413.955231 631.511963,411.155945 
	C621.330933,403.164032 611.612122,394.581543 601.748291,386.188110 
	C598.613464,383.520569 595.341553,382.134613 590.956177,382.140472 
	C480.977814,382.287445 370.999298,382.270447 261.020782,382.282288 
	C258.600525,382.282562 256.180298,382.282349 253.549789,381.214111 
	C259.256683,378.049866 264.963593,374.885620 271.213379,371.412354 
	C273.285400,370.110535 274.814484,369.117737 276.343567,368.124939 
z"/>
<path fill="#040518" opacity="1.000000" stroke="none" 
	d="
M370.006104,614.959595 
	C401.163239,614.900513 432.320312,614.803406 463.477478,614.790710 
	C519.305603,614.768005 575.134216,614.894958 630.961182,614.643250 
	C636.272766,614.619263 638.793884,617.948669 641.800659,620.664917 
	C662.403870,639.277466 685.279968,653.896912 712.060913,661.981323 
	C713.141479,662.307556 714.605896,663.869385 714.614624,664.866638 
	C714.769897,682.647827 714.727356,700.430786 714.727356,718.784912 
	C712.261169,718.784912 710.313477,718.784973 708.365845,718.784851 
	C555.380066,718.778992 402.394287,718.775818 249.408524,718.762146 
	C235.520721,718.760925 224.318405,707.736328 224.250046,693.865601 
	C224.161331,675.867676 224.158981,657.868774 224.246216,639.870850 
	C224.316925,625.281616 234.980911,614.786926 249.585999,614.816162 
	C288.746796,614.894592 327.907501,615.009521 367.861023,615.133545 
	C369.104553,615.091309 369.555328,615.025452 370.006104,614.959595 
z"/>
<path fill="#040518" opacity="1.000000" stroke="none" 
	d="
M578.742065,484.972351 
	C580.604370,499.734131 582.458923,514.001343 584.378052,528.764771 
	C583.264099,528.764771 581.653748,528.764954 580.043396,528.764771 
	C469.769928,528.753296 359.496490,528.747498 249.223022,528.723877 
	C234.270203,528.720642 224.307739,519.274170 224.121490,504.291901 
	C223.891708,485.807678 223.994858,467.314270 224.288513,448.830170 
	C224.509796,434.903046 235.909302,424.528290 250.608231,424.536591 
	C292.085663,424.559967 333.562988,424.701416 375.040405,424.725861 
	C443.003967,424.765930 510.967529,424.750275 578.931091,424.758118 
	C580.731689,424.758331 582.532288,424.758148 585.049133,424.758148 
	C579.867004,444.733948 577.815369,464.465637 578.742065,484.972351 
z"/>
<path fill="#0D0F25" opacity="1.000000" stroke="none" 
	d="
M338.999817,746.283325 
	C323.072845,746.283875 307.645905,746.283875 291.953705,746.283875 
	C291.953705,743.595764 291.953705,741.347168 291.953705,738.703308 
	C293.480286,738.609863 294.920380,738.448669 296.360931,738.444336 
	C324.968903,738.357239 353.576904,738.285400 382.184906,738.217651 
	C388.977539,738.201538 388.977570,738.213318 389.112274,746.282776 
	C372.574249,746.282776 356.037018,746.282776 338.999817,746.283325 
z"/>
<path fill="#0B0C21" opacity="1.000000" stroke="none" 
	d="
M453.791901,411.767426 
	C430.713165,411.767487 408.107330,411.767487 385.109528,411.767487 
	C385.109528,408.885864 385.109528,406.174072 385.109528,403.099182 
	C386.584930,403.019287 388.027527,402.874542 389.470245,402.873077 
	C411.083099,402.851105 432.696289,402.787506 454.308472,402.902344 
	C457.765259,402.920715 463.119293,401.147980 463.051514,407.172089 
	C462.988892,412.735443 457.971893,411.635925 453.791901,411.767426 
z"/>
<path fill="#1E1B3A" opacity="1.000000" stroke="none" 
	d="
M486.988647,554.053162 
	C485.704987,553.831543 484.421326,553.609924 482.677948,553.308899 
	C482.677948,551.265991 482.634369,549.306519 482.688385,547.349792 
	C482.766144,544.533630 482.690918,542.160522 486.837982,544.638794 
	C488.606262,545.695496 491.634399,544.642700 494.090088,544.550659 
	C499.651581,544.342224 504.917572,542.968994 510.835022,545.033691 
	C515.142029,546.536560 520.740051,544.138855 525.783936,543.786865 
	C530.850220,543.433472 535.943115,543.465637 541.024048,543.317810 
	C546.318542,543.163879 545.371704,547.236755 545.713867,550.339294 
	C546.114502,553.971985 543.576111,554.328430 540.901428,554.349060 
	C536.919128,554.379822 532.936340,554.357788 528.037659,554.344788 
	C513.743896,554.238647 500.366272,554.145935 486.988647,554.053162 
M524.801514,548.111023 
	C524.405823,547.187805 524.010132,546.264587 523.614441,545.341370 
	C522.815796,546.010254 521.588562,546.551086 521.339661,547.384216 
	C521.093201,548.209412 521.833252,549.329285 522.140625,550.319946 
	C522.942322,549.809753 523.743958,549.299561 524.801514,548.111023 
z"/>
<path fill="#0E0E1F" opacity="1.000000" stroke="none" 
	d="
M367.067108,593.092407 
	C377.768646,593.092407 388.470184,593.092407 399.473450,593.092407 
	C399.473450,596.113892 399.473450,598.835449 399.473450,602.316162 
	C393.890259,602.316162 388.351105,602.316162 382.379456,601.822266 
	C381.887421,600.016724 381.827942,598.705078 381.768433,597.393433 
	C381.292206,597.437134 380.815948,597.480835 380.339691,597.524475 
	C380.564301,599.017761 380.788879,600.510986 381.013489,602.004150 
	C364.461212,602.047180 347.908356,602.188782 331.357025,602.085938 
	C324.506592,602.043274 328.406494,596.609741 326.545380,592.807007 
	C336.328003,592.807007 345.191406,592.807007 354.553986,593.219116 
	C355.396271,593.478271 355.739410,593.325439 356.082550,593.172607 
	C359.082306,593.057434 362.082092,592.942261 365.519745,593.238892 
	C366.217224,593.914978 366.476807,594.179382 366.736389,594.443726 
	C366.846619,593.993286 366.956848,593.542847 367.067108,593.092407 
z"/>
<path fill="#A0A6F1" opacity="1.000000" stroke="none" 
	d="
M312.126221,567.429810 
	C339.586426,567.173462 367.178619,567.256165 394.770721,567.366821 
	C402.417450,567.397461 410.063873,567.511475 418.553101,567.686523 
	C422.947601,567.776184 426.499481,567.766541 430.413391,567.792358 
	C431.501984,567.805969 432.228485,567.784119 433.190796,567.917480 
	C433.604218,568.135254 433.781891,568.197754 434.027344,568.576599 
	C434.397644,569.921509 434.700104,570.950073 435.002594,571.978516 
	C433.258362,572.317383 431.514923,572.946411 429.769775,572.951172 
	C406.162537,573.015259 382.548340,573.317749 358.950836,572.833740 
	C349.300171,572.635742 339.699005,570.552917 330.048767,569.595093 
	C325.001068,569.094116 319.892914,569.224487 314.819458,568.938660 
	C313.946686,568.889526 313.110962,568.182434 312.126221,567.429810 
z"/>
<path fill="#494B67" opacity="1.000000" stroke="none" 
	d="
M532.905823,564.334229 
	C563.322083,561.449402 598.669067,563.395569 604.085022,569.057251 
	C590.934937,570.208313 577.719849,569.830627 564.526123,569.875305 
	C551.217102,569.920349 537.907593,569.891113 524.598511,569.841614 
	C511.123505,569.791504 497.648712,569.676880 483.363708,569.434753 
	C479.234009,568.736389 475.914429,568.193787 472.954010,567.445801 
	C473.850250,567.116699 474.387268,566.993042 475.397644,566.920288 
	C493.639099,566.653442 511.407990,566.368225 529.173706,565.948242 
	C530.429749,565.918518 531.662354,564.895447 532.905823,564.334229 
z"/>
<path fill="#9FA6F4" opacity="1.000000" stroke="none" 
	d="
M486.988770,554.452759 
	C500.366272,554.145935 513.743896,554.238647 527.582886,554.443848 
	C528.353027,557.459717 528.661804,560.363159 528.526611,563.726074 
	C511.719757,564.113098 495.356964,564.040588 478.994141,563.968018 
	C480.207153,563.070129 481.297119,561.770325 482.657501,561.353699 
	C486.026794,560.322021 487.313019,558.197693 486.988770,554.452759 
z"/>
<path fill="#A8ADFA" opacity="1.000000" stroke="none" 
	d="
M609.924377,295.631866 
	C590.972290,296.066559 571.944519,296.135681 552.458374,296.099884 
	C556.993652,290.513336 563.527161,289.021423 570.332947,290.279694 
	C576.925842,291.498566 583.363892,290.434814 589.866516,290.514221 
	C591.004333,290.528137 592.634216,289.698517 593.207703,290.202332 
	C597.580505,294.043610 602.553040,294.217773 607.891235,293.323395 
	C608.420410,293.234741 609.190491,294.584259 609.924377,295.631866 
z"/>
<path fill="#9FA4EC" opacity="1.000000" stroke="none" 
	d="
M835.299927,265.939545 
	C835.631958,264.898163 836.331299,263.909760 837.209595,262.670776 
	C842.243164,259.748627 847.097839,257.076965 852.776428,253.951874 
	C852.776428,263.772736 852.819763,272.802124 852.689758,281.829041 
	C852.679932,282.511658 851.437256,283.176575 850.385742,283.927399 
	C850.003845,280.182251 850.003845,276.359436 850.003845,271.292328 
	C842.736267,276.280121 839.901367,272.480713 837.670227,267.159851 
	C837.431641,266.590790 836.355042,266.373138 835.299927,265.939545 
z"/>
<path fill="#1C1A1E" opacity="1.000000" stroke="none" 
	d="
M474.924316,566.869324 
	C474.387268,566.993042 473.850250,567.116699 472.573395,567.466431 
	C460.244110,567.697205 448.654663,567.702026 436.804138,567.530029 
	C435.347046,567.489563 434.151031,567.625916 432.954987,567.762207 
	C432.228485,567.784119 431.501984,567.805969 430.206482,567.600525 
	C429.092010,567.230652 428.546509,567.088074 428.001007,566.945557 
	C427.998291,566.219055 427.995605,565.492615 427.998505,564.402832 
	C438.695221,564.088379 449.386353,564.137146 460.972778,564.197144 
	C464.245544,564.147888 466.623047,564.087463 469.000549,564.026978 
	C470.700867,564.116577 472.401184,564.206116 474.511597,564.679443 
	C474.922577,565.665161 474.923431,566.267273 474.924316,566.869324 
z"/>
<path fill="#8C93DA" opacity="1.000000" stroke="none" 
	d="
M437.065186,567.706787 
	C448.654663,567.702026 460.244110,567.697205 472.214203,567.671753 
	C475.914429,568.193787 479.234009,568.736389 482.914215,569.482056 
	C480.454041,570.450562 477.644409,571.825439 474.810577,571.877197 
	C461.857208,572.113770 448.897095,571.979309 435.471008,571.978333 
	C434.700104,570.950073 434.397644,569.921509 434.415161,568.496216 
	C435.511810,567.968567 436.288513,567.837708 437.065186,567.706787 
M476.055389,570.971924 
	C476.636810,570.909668 477.218201,570.847473 478.231720,570.738953 
	C477.515564,570.394104 477.257721,570.180725 476.984192,570.158264 
	C476.525513,570.120544 476.054718,570.191101 475.596802,570.264771 
	C475.563660,570.270142 475.594055,570.670410 476.055389,570.971924 
z"/>
<path fill="#2E2E35" opacity="1.000000" stroke="none" 
	d="
M475.397644,566.920288 
	C474.923431,566.267273 474.922577,565.665161 474.929993,564.760559 
	C476.021729,564.348267 477.105133,564.238525 478.591370,564.048340 
	C495.356964,564.040588 511.719757,564.113098 528.542969,564.088135 
	C530.044556,564.071106 531.085815,564.151550 532.516418,564.283081 
	C531.662354,564.895447 530.429749,565.918518 529.173706,565.948242 
	C511.407990,566.368225 493.639099,566.653442 475.397644,566.920288 
z"/>
<path fill="#A8ADFA" opacity="1.000000" stroke="none" 
	d="
M373.028473,314.906555 
	C370.343903,316.939453 367.578674,318.555450 364.462738,320.237671 
	C365.472168,316.112091 366.785034,311.903656 368.243866,307.746460 
	C368.460388,307.129517 369.539368,306.245056 369.915466,306.373596 
	C370.684479,306.636322 371.623199,307.402161 371.822632,308.141357 
	C372.380157,310.208221 372.596710,312.367065 373.028473,314.906555 
z"/>
<path fill="#9FA4EC" opacity="1.000000" stroke="none" 
	d="
M769.326782,274.242188 
	C777.859497,274.102692 786.721375,274.216003 795.798340,274.658447 
	C787.227539,274.823425 778.441833,274.659210 769.326782,274.242188 
z"/>
<path fill="#A8ADFA" opacity="1.000000" stroke="none" 
	d="
M457.999420,295.605225 
	C454.962738,296.068756 451.925415,296.142242 448.444031,296.109985 
	C450.756165,294.172150 453.512268,292.340088 457.215576,289.878418 
	C457.643188,292.792419 457.820984,294.003815 457.999420,295.605225 
z"/>
<path fill="#A8ADFA" opacity="1.000000" stroke="none" 
	d="
M525.154419,273.481384 
	C529.791870,273.235718 534.575073,273.344299 539.707520,273.674988 
	C535.137939,273.876617 530.219055,273.856110 525.154419,273.481384 
z"/>
<path fill="#9FA4EC" opacity="1.000000" stroke="none" 
	d="
M826.280090,271.268250 
	C828.742676,269.383057 831.474304,267.717041 834.547668,265.989258 
	C833.608459,270.029724 830.077454,270.756561 826.280090,271.268250 
z"/>
<path fill="#A8ADFA" opacity="1.000000" stroke="none" 
	d="
M432.908936,295.660553 
	C430.952087,296.071045 428.904175,296.140656 426.428131,296.105530 
	C427.837677,291.419830 430.240814,292.499481 432.908936,295.660553 
z"/>
<path fill="#A8ADFA" opacity="1.000000" stroke="none" 
	d="
M354.171875,314.021179 
	C351.415680,312.288025 351.415680,312.288025 355.689484,308.601807 
	C355.066193,311.148163 354.740570,312.478455 354.171875,314.021179 
z"/>
<path fill="#9FA6F4" opacity="1.000000" stroke="none" 
	d="
M468.877441,563.670532 
	C466.623047,564.087463 464.245544,564.147888 461.433350,564.103577 
	C463.312500,560.696594 465.987061,561.480286 468.877441,563.670532 
z"/>
<path fill="#A8ADFA" opacity="1.000000" stroke="none" 
	d="
M443.932007,295.652466 
	C442.279388,296.073303 440.558746,296.144775 438.419067,296.109924 
	C439.501587,291.977020 441.452911,291.715668 443.932007,295.652466 
z"/>
<path fill="#A8ADFA" opacity="1.000000" stroke="none" 
	d="
M359.806763,322.064880 
	C358.439514,323.164825 356.648865,324.243286 354.507416,325.394836 
	C354.203735,321.739227 356.879272,322.022217 359.806763,322.064880 
z"/>
<path fill="#A8ADFA" opacity="1.000000" stroke="none" 
	d="
M388.163391,281.151794 
	C388.392853,280.596497 388.840698,280.299652 389.553162,279.945862 
	C390.729340,280.560730 391.640900,281.232483 392.552460,281.904236 
	C392.347870,282.266754 392.143250,282.629242 391.938660,282.991760 
	C390.753021,282.464600 389.567413,281.937408 388.163391,281.151794 
z"/>
<path fill="#A8ADFA" opacity="1.000000" stroke="none" 
	d="
M622.895630,295.651672 
	C621.605591,296.055847 620.210938,296.125732 618.408081,296.092529 
	C619.248596,293.281677 620.886047,293.345703 622.895630,295.651672 
z"/>
<path fill="#A8ADFA" opacity="1.000000" stroke="none" 
	d="
M275.938477,368.097412 
	C274.814484,369.117737 273.285400,370.110535 271.411621,371.141846 
	C272.555725,370.143555 274.044556,369.106750 275.938477,368.097412 
z"/>
<path fill="#4F5271" opacity="1.000000" stroke="none" 
	d="
M381.211548,602.145691 
	C380.788879,600.510986 380.564301,599.017761 380.339691,597.524475 
	C380.815948,597.480835 381.292206,597.437134 381.768433,597.393433 
	C381.827942,598.705078 381.887421,600.016724 381.909729,601.732422 
	C381.872528,602.136536 381.409607,602.287170 381.211548,602.145691 
z"/>
<path fill="#A8ADFA" opacity="1.000000" stroke="none" 
	d="
M281.902191,365.018799 
	C281.267334,365.816040 280.436279,366.384491 279.298126,366.963013 
	C279.896027,366.245392 280.800995,365.517670 281.902191,365.018799 
z"/>
<path fill="#9FA4EC" opacity="1.000000" stroke="none" 
	d="
M841.808716,284.858246 
	C841.200745,285.647491 840.387207,286.232666 839.257568,286.841095 
	C839.828674,286.127625 840.715881,285.390900 841.808716,284.858246 
z"/>
<path fill="#A8ADFA" opacity="1.000000" stroke="none" 
	d="
M542.922363,295.687622 
	C542.245300,296.063416 541.490601,296.133148 540.367920,296.098816 
	C540.948181,295.790375 541.896423,295.585968 542.922363,295.687622 
z"/>
<path fill="#A8ADFA" opacity="1.000000" stroke="none" 
	d="
M479.080139,273.346313 
	C479.750824,273.030579 480.500610,273.015625 481.624664,273.025543 
	C481.052368,273.249298 480.105774,273.448212 479.080139,273.346313 
z"/>
<path fill="#A8ADFA" opacity="1.000000" stroke="none" 
	d="
M506.082153,273.372070 
	C506.751282,273.057800 507.500854,273.040283 508.624298,273.054291 
	C508.052979,273.280151 507.107788,273.474457 506.082153,273.372070 
z"/>
<path fill="#A8ADFA" opacity="1.000000" stroke="none" 
	d="
M319.085327,319.064087 
	C319.009491,318.729126 319.091400,318.575745 319.351013,318.228760 
	C319.819031,318.446289 320.109314,318.857391 320.399567,319.268463 
	C320.014069,319.260864 319.628571,319.253265 319.085327,319.064087 
z"/>
<path fill="#9A9EEA" opacity="1.000000" stroke="none" 
	d="
M369.941040,614.700623 
	C369.555328,615.025452 369.104553,615.091309 368.323608,615.055725 
	C368.620941,614.783447 369.248474,614.612549 369.941040,614.700623 
z"/>
<path fill="#9FA4EC" opacity="1.000000" stroke="none" 
	d="
M821.170898,274.834412 
	C821.361389,274.274658 821.874207,273.693970 822.686035,273.045959 
	C822.487854,273.590302 821.990601,274.201874 821.170898,274.834412 
z"/>
<path fill="#4F5271" opacity="1.000000" stroke="none" 
	d="
M366.790833,593.041138 
	C366.956848,593.542847 366.846619,593.993286 366.736389,594.443726 
	C366.476807,594.179382 366.217224,593.914978 365.957214,593.354980 
	C366.142731,593.036133 366.328644,593.012939 366.790833,593.041138 
z"/>
<path fill="#4F5271" opacity="1.000000" stroke="none" 
	d="
M355.793701,593.209595 
	C355.739410,593.325439 355.396271,593.478271 354.993958,593.379578 
	C355.124756,593.167480 355.314819,593.207031 355.793701,593.209595 
z"/>
<path fill="#9FA2EC" opacity="1.000000" stroke="none" 
	d="
M183.167236,570.347534 
	C183.152420,570.116333 183.280319,569.967163 183.702240,569.839417 
	C183.909851,570.234863 183.681076,570.424377 183.167236,570.347534 
z"/>
<path fill="#494B67" opacity="1.000000" stroke="none" 
	d="
M427.537903,566.975952 
	C428.546509,567.088074 429.092010,567.230652 429.844421,567.565063 
	C426.499481,567.766541 422.947601,567.776184 418.993256,567.633301 
	C421.418793,567.322632 424.246796,567.164490 427.537903,566.975952 
z"/>
<path fill="#494B67" opacity="1.000000" stroke="none" 
	d="
M524.673584,548.450195 
	C523.743958,549.299561 522.942322,549.809753 522.140625,550.319946 
	C521.833252,549.329285 521.093201,548.209412 521.339661,547.384216 
	C521.588562,546.551086 522.815796,546.010254 523.614441,545.341370 
	C524.010132,546.264587 524.405823,547.187805 524.673584,548.450195 
z"/>
<path fill="#494B67" opacity="1.000000" stroke="none" 
	d="
M436.804138,567.530029 
	C436.288513,567.837708 435.511810,567.968567 434.347321,568.179810 
	C433.781891,568.197754 433.604218,568.135254 433.190796,567.917542 
	C434.151031,567.625916 435.347046,567.489563 436.804138,567.530029 
z"/>
<path fill="#AAAFFC" opacity="1.000000" stroke="none" 
	d="
M475.825134,570.929504 
	C475.594055,570.670410 475.563660,570.270142 475.596802,570.264771 
	C476.054718,570.191101 476.525513,570.120544 476.984192,570.158264 
	C477.257721,570.180725 477.515564,570.394104 478.231720,570.738953 
	C477.218201,570.847473 476.636810,570.909668 475.825134,570.929504 
z"/>
</svg>