<?xml version="1.0" encoding="UTF-8"?>
 <svg width="59px" height="78px" viewBox="0 0 59 78" version="1.1" xmlns="http://www.w3.org/2000/svg"
        xmlns:xlink="http://www.w3.org/1999/xlink">
        <g id="Artboard" stroke="none" stroke-width="1" fill="none" fill-rule="evenodd">
            <g id="noun_Library_2228372" fill="#005B94" fill-rule="nonzero">
                <path
                    d="M58.444898,14.055102 L7.96122449,20.255102 C7.25918367,20.344898 6.56530612,20.2346939 6.07142857,19.9632653 C5.76938776,19.7979592 5.64489796,19.622449 5.63673469,19.5469388 L4.65714286,11.577551 C4.62653061,11.3244898 5.29591837,10.5061224 6.74285714,10.3285714 L54.7326531,4.43469388 L54.1897959,0.0204081633 L6.20204082,5.91428571 C2.60204082,6.35510204 0.0591836735,8.93673469 0.244897959,11.8489796 L0.210204082,11.8489796 L0.210204082,68.9857143 L0.242857143,68.9857143 C0.248979592,69.077551 0.232653061,69.1653061 0.242857143,69.2571429 L1.22040816,72.7795918 C1.4122449,74.3346939 2.39795918,75.7081633 3.92653061,76.5510204 C4.96530612,77.1204082 6.20204082,77.422449 7.48367347,77.4210661 C7.82244898,77.4210661 8.16326531,77.4 8.50408163,77.3612245 L57.444898,70.9857143 L58.444898,14.055102 Z"
                    id="Shape"></path>
            </g>
            <g id="Circle" fill="#FFFFFF" fill-rule="nonzero">

                <circle style="fill: rgb(255, 255, 255); stroke: rgb(255, 255, 255);" transform="matrix(0.163962, 0, 0, 0.170724, -40.152093, -33.909775)" cx="434.8" cy="461" r="120"></circle>

                <circle style="fill: rgb(0, 91, 148); stroke: rgb(255, 255, 255);" transform="matrix(0.163962, 0, 0, 0.170724, -40.152093, -33.909775)" cx="434.8" cy="461" r="100"></circle>

                <polyline style="fill: rgb(0, 91, 148); stroke-width: 4px; stroke-linecap: round; stroke: rgb(255, 255, 255);" points="21.688 45.658 30.765 52.693 43.814 32.223"></polyline>

            </g>
        </g>
    </svg>

    